<svg width="105" viewBox="0 0 105 120" fill="none" xmlns="http://www.w3.org/2000/svg">
<g clip-path="url(#clip0_2053_827)">
<path d="M52.5 60C60.4565 60 68.0871 56.8393 73.7132 51.2132C79.3393 45.5871 82.5 37.9565 82.5 30C82.5 22.0435 79.3393 14.4129 73.7132 8.7868C68.0871 3.16071 60.4565 0 52.5 0C44.5435 0 36.9129 3.16071 31.2868 8.7868C25.6607 14.4129 22.5 22.0435 22.5 30C22.5 37.9565 25.6607 45.5871 31.2868 51.2132C36.9129 56.8393 44.5435 60 52.5 60ZM41.7891 71.25C18.7031 71.25 0 89.9531 0 113.039C0 116.883 3.11719 120 6.96094 120H98.0391C101.883 120 105 116.883 105 113.039C105 89.9531 86.2969 71.25 63.2109 71.25H41.7891Z" fill="currentColor"/>
</g>
<defs>
<clipPath id="clip0_2053_827">
<rect width="105" height="120" fill="white"/>
</clipPath>
</defs>
</svg>
