<svg width="254" viewBox="0 0 254 229" fill="none" xmlns="http://www.w3.org/2000/svg">
<path d="M217.533 160.361C221.423 152.181 221.456 142.467 218.962 140.721C217.533 152.442 208.238 158.297 206.31 156.433C177.068 128.168 113.897 66.9624 95.1424 48.2578C76.3879 29.5533 40.5665 8.29237 25.0002 0C31.634 15.6121 59.2711 49.4009 72.2604 64.3438C107.03 101.046 177.642 175.723 181.932 180.811C186.221 185.899 174.591 194.465 168.585 194.465C172.014 201.324 183.735 194.715 188.728 192.034C192.922 189.782 197.39 186.464 200.008 185.986L224.201 209.926C224.285 210.009 224.391 210.066 224.505 210.093C233.062 212.126 236.819 221.595 238.363 227.599C238.435 227.877 238.689 228.072 238.976 228.066C251.415 227.792 256.216 217.205 252.923 210.586C252.773 210.284 252.4 210.187 252.081 210.297C246.458 212.251 234.716 201.613 234.118 195.463C233.796 192.162 218.364 180.167 209.739 174.451C210.716 173.163 213.642 168.541 217.533 160.361Z" fill="white"/>
<path d="M185.554 159.22L186.4 158.543C187.815 157.409 187.905 155.288 186.592 154.039L30.9989 5.99989L181.55 158.984C182.627 160.078 184.356 160.18 185.554 159.22Z" fill="#FCBF00"/>
<path d="M36.3989 160.361C32.5083 152.181 32.4753 142.467 34.9692 140.721C36.3989 152.442 45.6932 158.297 47.6216 156.433C76.8631 128.168 140.035 66.9624 158.789 48.2578C177.544 29.5533 213.365 8.29237 228.931 0C222.298 15.6121 194.661 49.4009 181.671 64.3438C146.901 101.046 76.2895 175.723 71.9999 180.811C67.7104 185.899 79.3407 194.465 85.3469 194.465C81.9178 201.324 70.1962 194.715 65.2039 192.034C61.01 189.782 56.5419 186.464 53.9232 185.986L29.7303 209.926C29.647 210.009 29.5407 210.066 29.4267 210.093C20.8697 212.126 17.1124 221.595 15.5685 227.599C15.497 227.877 15.2422 228.072 14.9552 228.066C2.51617 227.792 -2.28419 217.205 1.00868 210.586C1.15895 210.284 1.53164 210.187 1.85032 210.297C7.4732 212.251 19.2155 201.613 19.8141 195.463C20.1354 192.162 35.5676 180.167 44.1925 174.451C43.2157 173.163 40.2894 168.541 36.3989 160.361Z" fill="#004D98"/>
<path d="M217.5 10.1823L72.1877 158.862C71.0906 159.985 69.2488 159.856 68.3185 158.592C67.5657 157.569 67.6826 156.147 68.5923 155.261L217.5 10.1823Z" fill="#A50044"/>
<path d="M181.254 174.026C187.042 173.048 199.075 167.955 200.906 155.4" stroke="#004996" stroke-width="3" stroke-linecap="round"/>
<path d="M54.373 155C55.2634 160.802 60.1756 172.91 72.7015 174.93" stroke="#EDBB00" stroke-width="3" stroke-linecap="round"/>
</svg>
